<svg class="svg-icon" style="width: 1em; height: 1em;vertical-align: middle;fill: currentColor;overflow: hidden;" viewBox="0 0 1024 1024" version="1.1" xmlns="http://www.w3.org/2000/svg"><path d="M512 128C299.946667 128 128 299.946667 128 512s171.946667 384 384 384c35.413333 0 64-28.586667 64-64 0-16.64-6.186667-31.573333-16.64-42.88-10.026667-11.306667-16-26.026667-16-42.453333 0-35.413333 28.586667-64 64-64H682.666667c117.76 0 213.333333-95.573333 213.333333-213.333334 0-188.586667-171.946667-341.333333-384-341.333333zM277.333333 512c-35.413333 0-64-28.586667-64-64s28.586667-64 64-64 64 28.586667 64 64-28.586667 64-64 64z m128-170.666667c-35.413333 0-64-28.586667-64-64s28.586667-64 64-64 64 28.586667 64 64-28.586667 64-64 64z m213.333334 0c-35.413333 0-64-28.586667-64-64s28.586667-64 64-64 64 28.586667 64 64-28.586667 64-64 64z m128 170.666667c-35.413333 0-64-28.586667-64-64s28.586667-64 64-64 64 28.586667 64 64-28.586667 64-64 64z"  /></svg>